<?xml version="1.0"?>
<svg width="425" height="440" xmlns="http://www.w3.org/2000/svg" xmlns:svg="http://www.w3.org/2000/svg">
 <g class="layer">
  <title>Paranoia Text Encryption - Steganography</title>
  <rect fill="#DCDCDC" height="41" id="svg_1" stroke="#000000" stroke-miterlimit="10" stroke-width="2" width="120.3" x="135.8" y="19.25"/>
  <rect fill="#FFFFFF" height="34.5" id="svg_2" stroke="#000000" stroke-miterlimit="10" stroke-width="2" width="80.2" x="59.4" y="122.45"/>
  <rect fill="#FFFFFF" height="34.5" id="svg_3" stroke="#000000" stroke-miterlimit="10" stroke-width="2" width="80.2" x="249.7" y="122.45"/>
  <polyline id="svg_4" points="99.55000686645508,196.9499969482422 105.75000381469727,183.75 102.55000686645508,183.75 102.55000686645508,163.5500030517578 96.55000686645508,163.5500030517578 96.55000686645508,183.75 93.25000381469727,183.75 99.55000686645508,196.9499969482422 "/>
  <polyline id="svg_5" points="95.80000305175781,114.55000305175781 113.0999984741211,108.1500015258789 111,105.6500015258789 150.8000030517578,72.25 147,67.6500015258789 107.19999694824219,101.05000305175781 105.0999984741211,98.55000305175781 95.80000305175781,114.55000305175781 "/>
  <polyline id="svg_6" points="293.5,114.55000305175781 276.1000061035156,108.1500015258789 278.20001220703125,105.6500015258789 238.39999389648438,72.25 242.3000030517578,67.6500015258789 282.1000061035156,101.05000305175781 284.20001220703125,98.55000305175781 293.5,114.55000305175781 "/>
  <polyline id="svg_7" points="291.5499725341797,196.9499969482422 297.74998474121094,183.75 294.5499725341797,183.75 294.5499725341797,163.5500030517578 288.5499725341797,163.5500030517578 288.5499725341797,183.75 285.24998474121094,183.75 291.5499725341797,196.9499969482422 "/>
  <rect fill="#FFFFFF" height="34.5" id="svg_8" stroke="#000000" stroke-miterlimit="10" stroke-width="2" width="80.2" x="59.4" y="202.75"/>
  <rect fill="#FFFFFF" height="34.5" id="svg_9" stroke="#000000" stroke-miterlimit="10" stroke-width="2" width="80.2" x="251.4" y="202.75"/>
  <rect fill="#DCDCDC" height="41" id="svg_10" stroke="#000000" stroke-miterlimit="10" stroke-width="2" width="120.3" x="285.8" y="19.25"/>
  <rect fill="#FFFFFF" height="51.7" id="svg_11" stroke="#000000" stroke-miterlimit="10" stroke-width="2" width="156.4" x="249.7" y="282.25"/>
  <polyline id="svg_12" points="390.20001220703125,276.95001220703125 396.5,259.54998779296875 393.20001220703125,259.54998779296875 393.20001220703125,70.25 387.20001220703125,70.25 387.20001220703125,259.54998779296875 384,259.54998779296875 390.20001220703125,276.95001220703125 "/>
  <polyline id="svg_13" points="291.5499725341797,276.95001220703125 297.74998474121094,263.75 294.5499725341797,263.75 294.5499725341797,243.5500030517578 288.5499725341797,243.5500030517578 288.5499725341797,263.75 285.24998474121094,263.75 291.5499725341797,276.95001220703125 "/>
  <rect fill="#FFFFFF" height="51.7" id="svg_14" stroke="#000000" stroke-miterlimit="10" stroke-width="2" width="140" x="18.5" y="282.25"/>
  <polyline id="svg_15" points="99.5,276.95001220703125 105.69999694824219,263.75 102.5,263.75 102.5,243.5500030517578 96.5,243.5500030517578 96.5,263.75 93.19999694824219,263.75 99.5,276.95001220703125 "/>
  <polyline id="svg_16" points="165,306.75 182.39999389648438,300.45001220703125 182.39999389648438,303.75 242,303.75 242,309.75 182.39999389648438,309.75 182.39999389648438,313.04998779296875 165,306.75 "/>
  <polyline id="svg_17" points="88.45000457763672,377.3374938964844 106.1500015258789,359.9375 96.95000457763672,359.9375 96.95000457763672,341.63751220703125 80.05000305175781,341.63751220703125 80.05000305175781,359.9375 70.8499984741211,359.9375 88.45000457763672,377.3374938964844 "/>
  <rect fill="#DCDCDC" height="41.5" id="svg_18" stroke="#000000" stroke-miterlimit="10" stroke-width="2" width="140" x="18.5" y="382.825"/>
  <text fill="black" font-family="Sans-serif" font-size="12px" font-weight="bold" id="svg_19" transform="matrix(1, 0, 0, 1, 130.789, 39)" x="37.161003" y="5.15">Password</text>
  <text font-family="&#x27;Arial-BoldMT&#x27;" font-size="12px" id="svg_24" transform="matrix(1, 0, 0, 1, 305.134, 39)" x="38.149799" y="4.75"/>
  <text fill="black" font-family="Sans-serif" font-size="12px" font-weight="bold" id="svg_31" transform="matrix(1, 0, 0, 1, 44.1231, 139.333)" x="28.176904" y="4.767005">SHA3-512</text>
  <text fill="black" font-family="Sans-serif" font-size="12px" font-weight="bold" id="svg_32" transform="matrix(1, 0, 0, 1, 221.456, 140.333)" x="51.144001" y="-2.999745">HKDF</text>
  <text fill="black" font-family="Sans-serif" font-size="12px" font-weight="bold" id="svg_33" transform="matrix(1, 0, 0, 1, 42.7896, 219.333)" x="39.110405" y="5.067008">scrypt</text>
  <text fill="black" font-family="Sans-serif" font-size="12px" font-weight="bold" id="svg_34" transform="matrix(1, 0, 0, 1, 235.456, 219.333)" x="30.44399" y="-0.749729">Argon2id</text>
  <text fill="black" font-family="Sans-serif" font-size="12px" font-weight="bold" id="svg_35" transform="matrix(1, 0, 0, 1, 248.707, 303.5)" x="35.992985" y="0.25">Encryption (*B)</text>
  <text fill="black" font-family="Sans-serif" font-size="8px" font-weight="bold" id="svg_36" transform="matrix(1, 0, 0, 1, 227.466, 313.1)" x="33.633984" y="3.25">(chosen symmetric cipher in EAX)</text>
  <text fill="black" font-family="Sans-serif" font-size="8px" id="svg_37" transform="matrix(1, 0, 0, 1, 142.003, 293.667)" x="43.125001" y="26.875002">encrypted data</text>
  <text fill="black" font-family="Sans-serif" font-size="12px" font-weight="bold" id="svg_40" transform="matrix(1, 0, 0, 1, 32.9897, 393)" x="17.510301" y="6.625">Steganogram</text>
  <text fill="black" font-family="Sans-serif" font-size="12px" font-weight="bold" id="svg_41" transform="matrix(1, 0, 0, 1, 32.3188, 407.4)" x="17.3812" y="6.625">(JPEG image)</text>
  <text fill="black" font-family="Sans-serif" font-size="12px" font-weight="bold" id="svg_72" transform="matrix(1, 0, 0, 1, 130.789, 39)" x="183.960987" y="5.15">Data (Text)</text>
  <text fill="black" font-family="Sans-serif" font-size="8px" id="svg_73" stroke-dasharray="null" stroke-linecap="null" stroke-linejoin="null" stroke-width="null" text-anchor="middle" x="135.750039" xml:space="preserve" y="257.93753">KEY for F5 (*C)</text>
  <text fill="black" font-family="Sans-serif" font-size="8px" id="svg_74" stroke-linecap="null" stroke-linejoin="null" stroke-width="null" text-anchor="middle" transform="matrix(0.903121, 0, 0, 1, 26.7301, 0)" x="344" xml:space="preserve" y="257.53762">encryption KEY + nonce</text>
  <rect fill="#DCDCDC" height="41" id="svg_20" stroke="#000000" stroke-miterlimit="10" stroke-width="2" width="88.237498" x="18.5" y="19.25"/>
  <text fill="black" font-family="Sans-serif" font-size="12px" font-weight="bold" id="svg_21" transform="matrix(1, 0, 0, 1, 130.789, 39)" x="-88.570252" y="-1.8125">Carrier</text>
  <text fill="black" font-family="Sans-serif" font-size="12px" font-weight="bold" id="svg_22" transform="matrix(1, 0, 0, 1, 130.789, 39)" x="-85.370251" y="10.9375">Image</text>
  <text fill="black" font-family="Sans-serif" font-size="12px" font-weight="bold" id="svg_23" transform="matrix(1, 0, 0, 1, 248.707, 303.5)" x="-215.006996" y="0.25">Steganography (*A)</text>
  <text fill="black" font-family="Sans-serif" font-size="8px" font-weight="bold" id="svg_25" transform="matrix(1, 0, 0, 1, 227.466, 313.1)" x="-166.166" y="3.25">(F5 algorithm)</text>
  <polyline id="svg_27" points="34.20001220703125,276.95001220703125 40.5,259.54998779296875 37.20001220703125,259.54998779296875 37.20001220703125,70.25 31.20001220703125,70.25 31.20001220703125,259.54998779296875 28,259.54998779296875 34.20001220703125,276.95001220703125 "/>
  <text fill="black" font-family="Sans-serif" font-size="12px" font-weight="bold" id="svg_26" transform="matrix(0.756662, 0, 0, 0.714754, 231.068, 139.891)" x="45.554923" y="11.748507">(SHA3-512)</text>
  <text fill="black" font-family="Sans-serif" font-size="8px" font-weight="bold" id="svg_28" transform="matrix(1, 0, 0, 1, 227.466, 313.1)" x="36.033982" y="-83.247805">(+SHA3 HKDF)</text>
 </g>

</svg>