<?xml version="1.0" encoding="UTF-8"?>
<svg xmlns="http://www.w3.org/2000/svg" xmlns:svg="http://www.w3.org/2000/svg" width="740" height="390">
   <g class="layer">
      <title>S.S.E. Password Vault - Format Specifications</title>
      <line y2="184.66504" y1="64.87641" x2="484.06247" x1="484.06247" stroke-miterlimit="10" stroke-dasharray="5,3" stroke="#969696" id="svg_40" fill="none" />
      <line y2="318.18" y1="230.02311" x2="402.18" x1="484.44511" stroke-miterlimit="10" stroke-dasharray="5,3" stroke="#969696" id="svg_38" fill="none" />
      <line y2="319.66667" y1="231.29189" x2="202.33333" x1="23.98343" stroke-miterlimit="10" stroke-dasharray="5,3" stroke="#969696" id="svg_1" fill="none" />
      <rect y="169" x="24" width="64" stroke-width="2" stroke-miterlimit="10" stroke="#000000" id="svg_2" height="16.00188" fill="#FFFFFF" />
      <rect y="185" x="152" width="40" stroke-width="2" stroke-miterlimit="10" stroke="#000000" id="svg_35" height="46" fill="#FFFFFF" />
      <rect y="185" x="24" width="64" stroke-width="2" stroke-miterlimit="10" stroke="#000000" id="svg_23" height="46" fill="#FFFFFF" />
      <rect y="185" x="88" width="64" stroke-width="2" stroke-miterlimit="10" stroke="#000000" id="svg_34" height="46" fill="#FFFFFF" />
      <line y2="184.77193" y1="65.36686" x2="264.47371" x1="240.1499" stroke-miterlimit="10" stroke-dasharray="5,3" stroke="#969696" id="svg_3" fill="none" />
      <rect y="185.07138" x="264" width="219.77774" stroke-width="2" stroke-miterlimit="10" stroke="#000000" id="svg_5" height="46" fill="#FFFFFF" />
      <rect y="19" x="239.33333" width="244.55759" stroke-width="2" stroke-miterlimit="10" stroke="#000000" id="svg_6" height="46" fill="#FFFFFF" />
      <polyline points="361.6121292114258,154.0469970703125 386.45413970947266,128.77200317382812 373.53614044189453,128.77200317382812 373.53614044189453,98.03299713134766 349.68811798095703,98.03299713134766 349.68811798095703,128.77200317382812 336.7701187133789,128.77200317382812 361.6121292114258,154.0469970703125 " id="svg_7" />
      <text y="2" x="57.12214" transform="matrix(1, 0, 0, 1, 235.415, 86.8208)" id="svg_8" font-size="18" font-family="Sans-serif" fill="black">compression (A*)</text>
      <text y="2" x="56.56813" transform="matrix(1, 0, 0, 1, 245.494, 170.899)" id="svg_9" font-size="18" font-family="Sans-serif" fill="black">encryption (B*)</text>
      <text y="0.38338" x="71.57053" transform="matrix(1, 0, 0, 1, 225.235, 214.888)" id="svg_10" font-weight="bold" font-size="21" font-family="Sans-serif" fill="black">Encrypted Data</text>
      <rect y="185" x="191.91345" width="72" stroke-width="2" stroke-miterlimit="10" stroke="#000000" id="svg_12" height="46" fill="#FFFFFF" />
      <text y="-7" x="60.90571" transform="matrix(1, 0, 0, 1.05653, 30, 211.594)" id="svg_13" font-weight="bold" font-size="14" font-family="Sans-serif" fill="black">KDF (*D)</text>
      <text y="1.537" x="63.77046" transform="matrix(1, 0, 0, 1, 133.568, 211.888)" id="svg_14" font-weight="bold" font-size="16" font-family="Sans-serif" fill="black">Salt (*F)</text>
      <text y="1.32505" x="77.66071" transform="matrix(1, 0, 0, 1, 421.667, 214.888)" id="svg_15" font-weight="bold" font-size="24" font-family="Sans-serif" fill="black">= (Database Format)</text>
      <rect y="319" x="201" width="200" stroke-width="2" stroke-miterlimit="10" stroke="#000000" id="svg_16" height="46" fill="#FFFFFF" />
      <polyline points="361.6116256713867,304.7130432128906 386.4536361694336,279.4380187988281 373.53661346435547,279.4380187988281 373.53661346435547,248.69898986816406 349.68761444091797,248.69898986816406 349.68761444091797,279.4380187988281 336.77062225341797,279.4380187988281 361.6116256713867,304.7130432128906 " id="svg_17" />
      <text y="0.64501" x="1.56433" transform="matrix(1, 0, 0, 1, 245.494, 348.555)" id="svg_18" font-weight="bold" font-size="21" font-family="Sans-serif" fill="black">DB Format</text>
      <rect y="319" x="129" width="72" stroke-width="2" stroke-miterlimit="10" stroke="#000000" id="svg_19" height="46" fill="#FFFFFF" />
      <rect y="319" x="24" width="105" stroke-width="2" stroke-miterlimit="10" stroke="#000000" id="svg_20" height="46" fill="#FFFFFF" />
      <rect y="319" x="401" width="83" stroke-width="2" stroke-miterlimit="10" stroke="#000000" id="svg_24" height="46" fill="#FFFFFF" />
      <text y="1.20399" x="0.48133" transform="matrix(1, 0, 0, 1, 406.902, 346.221)" id="svg_25" font-weight="bold" font-size="16" font-family="Sans-serif" fill="black">Hash (*G)</text>
      <text y="-0.41232" x="-2.25" transform="matrix(1, 0, 0, 1, 501.667, 350.554)" id="svg_26" font-weight="bold" font-size="24" font-family="Sans-serif" fill="black">= (.pwv File Format)</text>
      <text y="0.3123" x="59.72046" transform="matrix(1, 0, 0, 1, 189, 48.8877)" id="svg_27" font-weight="bold" font-size="21" font-family="Sans-serif" fill="black">Serialized Vault Object</text>
      <text y="-9.03516" x="0" transform="matrix(1, 0, 0, 1, 136.5, 348.555)" id="svg_28" font-weight="bold" font-size="16" font-family="Sans-serif" fill="black">Version</text>
      <text y="125.2683" x="0.60833" transform="matrix(1, 0, 0, 1, 30, 211.888)" id="svg_30" font-weight="bold" font-size="14" font-family="Sans-serif" fill="black">Header String</text>
      <text y="145.23701" x="23.925" transform="matrix(1, 0, 0, 1, 30, 211.888)" id="svg_31" font-weight="bold" font-size="14" font-family="Sans-serif" fill="black">"PWV"</text>
      <text y="9.06219" x="18.26667" transform="matrix(1, 0, 0, 1, 136.5, 348.555)" id="svg_21" font-weight="bold" font-size="16" font-family="Sans-serif" fill="black">1B</text>
      <text y="-125" x="-24.81141" transform="matrix(1, 0, 0, 1, 136.5, 348.555)" id="svg_22" font-weight="bold" font-size="16" font-family="Sans-serif" fill="black">1B</text>
      <text y="-7" x="-2" transform="matrix(1, 0, 0, 1.05653, 30, 211.594)" id="svg_36" font-weight="bold" font-size="14" font-family="Sans-serif" fill="black">Alg. (*C)</text>
      <text y="-125" x="-90" transform="matrix(1, 0, 0, 1, 136.5, 348.555)" id="svg_37" font-weight="bold" font-size="16" font-family="Sans-serif" fill="black">1B</text>
      <text y="-125" x="25.96385" transform="matrix(1, 0, 0, 1, 136.5, 348.555)" id="svg_4" font-weight="bold" font-size="16" font-family="Sans-serif" fill="black">1B</text>
      <text y="-7" x="130" transform="matrix(1, 0, 0, 1.05653, 30, 211.594)" id="svg_11" font-weight="bold" font-size="14" font-family="Sans-serif" fill="black">(*E)</text>
      <text xml:space="preserve" text-anchor="start" font-family="Sans-serif" font-size="11" id="svg_32" y="180.60945" x="31.44465" stroke-width="0" stroke="#000000" fill="#000000">encrypted</text>
   </g>
</svg>
